<svg width="20" height="21" viewBox="0 0 20 21" fill="none" xmlns="http://www.w3.org/2000/svg">
<g clip-path="url(#clip0_145_161)">
<path d="M16.0245 13.2167L13.9079 12.975C13.3995 12.9167 12.8995 13.0917 12.5412 13.45L11.0079 14.9833C8.64955 13.7833 6.71621 11.8583 5.51621 9.49166L7.05788 7.95C7.41621 7.59166 7.59121 7.09166 7.53288 6.58333L7.29121 4.48333C7.19121 3.64166 6.48288 3.00833 5.63288 3.00833H4.19121C3.24955 3.00833 2.46621 3.79166 2.52455 4.73333C2.96621 11.85 8.65788 17.5333 15.7662 17.975C16.7079 18.0333 17.4912 17.25 17.4912 16.3083V14.8667C17.4995 14.025 16.8662 13.3167 16.0245 13.2167Z" fill="#211F20"/>
</g>
<defs>
<clipPath id="clip0_145_161">
<rect width="20" height="20" fill="white" transform="translate(0 0.5)"/>
</clipPath>
</defs>
</svg>
