<svg width="20" height="21" viewBox="0 0 20 21" fill="none" xmlns="http://www.w3.org/2000/svg">
<g clip-path="url(#clip0_145_164)">
<path d="M9.99967 3.83333C5.83301 3.83333 2.27467 6.425 0.833008 10.0833C2.27467 13.7417 5.83301 16.3333 9.99967 16.3333C14.1663 16.3333 17.7247 13.7417 19.1663 10.0833C17.7247 6.425 14.1663 3.83333 9.99967 3.83333ZM9.99967 14.25C7.69967 14.25 5.83301 12.3833 5.83301 10.0833C5.83301 7.78333 7.69967 5.91667 9.99967 5.91667C12.2997 5.91667 14.1663 7.78333 14.1663 10.0833C14.1663 12.3833 12.2997 14.25 9.99967 14.25ZM9.99967 7.58333C8.61634 7.58333 7.49967 8.7 7.49967 10.0833C7.49967 11.4667 8.61634 12.5833 9.99967 12.5833C11.383 12.5833 12.4997 11.4667 12.4997 10.0833C12.4997 8.7 11.383 7.58333 9.99967 7.58333Z" fill="#211F20"/>
</g>
<defs>
<clipPath id="clip0_145_164">
<rect width="20" height="20" fill="white" transform="translate(0 0.5)"/>
</clipPath>
</defs>
</svg>
