<svg width="20" height="21" viewBox="0 0 20 21" fill="none" xmlns="http://www.w3.org/2000/svg">
<g clip-path="url(#clip0_145_167)">
<path d="M10.0003 2.16667C5.40033 2.16667 1.66699 5.9 1.66699 10.5C1.66699 15.1 5.40033 18.8333 10.0003 18.8333C14.6003 18.8333 18.3337 15.1 18.3337 10.5C18.3337 5.9 14.6003 2.16667 10.0003 2.16667ZM10.0003 4.66667C11.3837 4.66667 12.5003 5.78333 12.5003 7.16667C12.5003 8.55 11.3837 9.66667 10.0003 9.66667C8.61699 9.66667 7.50033 8.55 7.50033 7.16667C7.50033 5.78333 8.61699 4.66667 10.0003 4.66667ZM10.0003 16.5C7.91699 16.5 6.07533 15.4333 5.00033 13.8167C5.02533 12.1583 8.33366 11.25 10.0003 11.25C11.6587 11.25 14.9753 12.1583 15.0003 13.8167C13.9253 15.4333 12.0837 16.5 10.0003 16.5Z" fill="#211F20"/>
</g>
<defs>
<clipPath id="clip0_145_167">
<rect width="20" height="20" fill="white" transform="translate(0 0.5)"/>
</clipPath>
</defs>
</svg>
