<svg width="20" height="21" viewBox="0 0 20 21" fill="none" xmlns="http://www.w3.org/2000/svg">
<g clip-path="url(#clip0_145_158)">
<path d="M12.9162 12.1667H12.2579L12.0245 11.9417C13.0245 10.775 13.5412 9.18333 13.2579 7.49167C12.8662 5.175 10.9329 3.325 8.59955 3.04167C5.07454 2.60833 2.10788 5.575 2.54121 9.1C2.82454 11.4333 4.67455 13.3667 6.99121 13.7583C8.68288 14.0417 10.2745 13.525 11.4412 12.525L11.6662 12.7583V13.4167L15.2079 16.9583C15.5495 17.3 16.1079 17.3 16.4495 16.9583C16.7912 16.6167 16.7912 16.0583 16.4495 15.7167L12.9162 12.1667ZM7.91621 12.1667C5.84121 12.1667 4.16621 10.4917 4.16621 8.41667C4.16621 6.34167 5.84121 4.66667 7.91621 4.66667C9.99121 4.66667 11.6662 6.34167 11.6662 8.41667C11.6662 10.4917 9.99121 12.1667 7.91621 12.1667Z" fill="#211F20"/>
</g>
<defs>
<clipPath id="clip0_145_158">
<rect width="20" height="20" fill="white" transform="translate(0 0.5)"/>
</clipPath>
</defs>
</svg>
