<svg width="276" height="42" viewBox="0 0 276 42" fill="none" xmlns="http://www.w3.org/2000/svg">
<path d="M11.88 15.4379L6.552 17.0579H10.836L11.52 19.5419L9.072 20.2619L6.264 17.7779L6.588 21.3779H5.256L5.58 17.7779L2.808 20.2619L0.324 19.5419L1.008 17.0579H5.292L0 15.4379V12.9539L2.304 12.3419L5.472 16.1219L3.672 11.0459L5.94 9.13789L8.208 11.0459L6.408 16.1219L9.576 12.3419L11.88 12.9539V15.4379Z" fill="#3F6745"/>
<path d="M5.98725 37.0019H9.26325L18.4792 15.0059L17.9032 13.2419H14.4832V12.5219H21.8633L31.3673 37.0019H34.6793V37.7219H21.9713V37.0019H27.1192L24.2033 29.4779H13.2232L10.0912 37.0019H15.7793V37.7219H5.98725V37.0019ZM23.9153 28.7579L18.8752 16.0139L13.5112 28.7579H23.9153Z" fill="#3F6745"/>
<path d="M35.1363 13.2419H31.1763V12.5219H43.2363V13.2419H39.2763V31.6739L52.7043 12.5219H59.6163V13.2419H55.6563V37.0019H59.6163V37.7219H46.7643V37.0019H51.5163V15.6179L35.5323 38.7659H35.1363V13.2419ZM45.3963 10.2179C44.1243 10.2179 42.9963 9.94189 42.0123 9.38989C41.0523 8.83789 40.3083 8.05789 39.7803 7.04989C39.2523 6.04189 38.9883 4.88989 38.9883 3.59389V3.23389H39.5643V3.55789C39.5643 4.82989 40.0563 5.78989 41.0403 6.43789C42.0243 7.08589 43.4763 7.40989 45.3963 7.40989C47.3403 7.40989 48.8043 7.08589 49.7883 6.43789C50.7723 5.78989 51.2643 4.82989 51.2643 3.55789V3.23389H51.8403V3.59389C51.8403 4.88989 51.5643 6.04189 51.0123 7.04989C50.4843 8.05789 49.7283 8.83789 48.7443 9.38989C47.7843 9.94189 46.6683 10.2179 45.3963 10.2179Z" fill="#3F6745"/>
<path d="M64.4833 37.0019H69.2353V13.2419H64.3393C63.8353 13.2419 63.2833 13.4699 62.6833 13.9259C62.0833 14.3819 61.5793 14.9459 61.1713 15.6179C60.7633 16.2659 60.5593 16.8659 60.5593 17.4179V20.8019H59.8753V10.0019H60.5953V12.5219H82.0153V10.0019H82.7353V20.8019H82.0873V17.4179C82.0873 16.8659 81.8833 16.2659 81.4753 15.6179C81.0673 14.9459 80.5633 14.3819 79.9633 13.9259C79.3633 13.4699 78.8113 13.2419 78.3073 13.2419H73.3753V37.0019H78.1273V37.7219H64.4833V37.0019Z" fill="#3F6745"/>
<path d="M83.0346 37.0019H86.9946V13.2419H83.0346V12.5219H95.8866V13.2419H91.1346V23.3219H95.0226C98.1666 23.3219 100.627 23.9579 102.403 25.2299C104.179 26.5019 105.067 28.2659 105.067 30.5219C105.067 32.7539 104.167 34.5179 102.367 35.8139C100.591 37.0859 98.1426 37.7219 95.0226 37.7219H83.0346V37.0019ZM94.7346 37.0019C96.7026 37.0019 98.2266 36.4379 99.3066 35.3099C100.387 34.1819 100.927 32.5859 100.927 30.5219C100.927 28.4579 100.387 26.8619 99.3066 25.7339C98.2266 24.6059 96.7026 24.0419 94.7346 24.0419H91.1346V37.0019H94.7346ZM105.715 37.0019H109.675V13.2419H105.715V12.5219H117.775V13.2419H113.815V37.0019H117.775V37.7219H105.715V37.0019Z" fill="#3F6745"/>
<path d="M117.595 37.0019H121.555V13.2419H117.595V12.5219H130.447V13.2419H125.695V23.3219H129.583C132.727 23.3219 135.187 23.9579 136.963 25.2299C138.739 26.5019 139.627 28.2659 139.627 30.5219C139.627 32.7539 138.727 34.5179 136.927 35.8139C135.151 37.0859 132.703 37.7219 129.583 37.7219H117.595V37.0019ZM129.295 37.0019C131.263 37.0019 132.787 36.4379 133.867 35.3099C134.947 34.1819 135.487 32.5859 135.487 30.5219C135.487 28.4579 134.947 26.8619 133.867 25.7339C132.787 24.6059 131.263 24.0419 129.295 24.0419H125.695V37.0019H129.295ZM140.275 37.0019H144.235V13.2419H140.275V12.5219H152.335V13.2419H148.375V37.0019H152.335V37.7219H140.275V37.0019Z" fill="#3F6745"/>
<path d="M152.155 37.0019H156.115V13.2419H152.155V12.5219H164.467V13.2419H160.255V24.7619H172.315V13.2419H168.103V12.5219H180.415V13.2419H176.455V37.0019H180.415V37.7219H168.103V37.0019H172.315V25.4819H160.255V37.0019H164.467V37.7219H152.155V37.0019Z" fill="#3F6745"/>
<path d="M192.667 12.72H194.207V3.48H192.667V3.2H197.357V3.48H195.817V7.96H196.951L200.787 3.48H198.883V3.2H202.509V3.48H201.151L198.141 6.994L202.285 12.72H203.517V13H198.659V12.72H200.423L197.021 8.24H195.817V12.72H197.357V13H192.667V12.72ZM206.555 13.14C205.818 13.14 205.155 12.986 204.567 12.678C203.989 12.3607 203.531 11.9267 203.195 11.376C202.869 10.816 202.705 10.1907 202.705 9.5C202.705 8.8 202.869 8.17467 203.195 7.624C203.531 7.07333 203.989 6.644 204.567 6.336C205.155 6.01867 205.818 5.86 206.555 5.86C207.293 5.86 207.951 6.01867 208.529 6.336C209.117 6.644 209.575 7.078 209.901 7.638C210.237 8.18867 210.405 8.80933 210.405 9.5C210.405 10.1907 210.237 10.816 209.901 11.376C209.575 11.9267 209.117 12.3607 208.529 12.678C207.941 12.986 207.283 13.14 206.555 13.14ZM206.555 12.888C207.041 12.888 207.465 12.7573 207.829 12.496C208.193 12.2253 208.473 11.8333 208.669 11.32C208.865 10.8067 208.963 10.2 208.963 9.5C208.963 8.79067 208.865 8.184 208.669 7.68C208.473 7.16667 208.193 6.77467 207.829 6.504C207.465 6.23333 207.041 6.098 206.555 6.098C206.07 6.098 205.641 6.23333 205.267 6.504C204.903 6.77467 204.623 7.16667 204.427 7.68C204.231 8.184 204.133 8.79067 204.133 9.5C204.133 10.2 204.231 10.8067 204.427 11.32C204.623 11.8333 204.903 12.2253 205.267 12.496C205.641 12.7573 206.07 12.888 206.555 12.888ZM211.365 13.126C211.234 13.126 211.104 13.1027 210.973 13.056C210.842 13.0187 210.73 12.9673 210.637 12.902V11.488H210.707C210.828 11.6373 210.964 11.754 211.113 11.838C211.272 11.9127 211.444 11.95 211.631 11.95C212.06 11.95 212.401 11.67 212.653 11.11C212.802 10.7647 212.91 10.34 212.975 9.836C213.05 9.332 213.11 8.744 213.157 8.072C213.157 8.03467 213.157 8.002 213.157 7.974C213.166 7.946 213.171 7.91333 213.171 7.876C213.171 7.74533 213.166 7.61467 213.157 7.484C213.157 7.35333 213.152 7.22267 213.143 7.092C213.134 6.96133 213.124 6.83067 213.115 6.7C213.106 6.56 213.092 6.42 213.073 6.28H211.967V6H218.925V6.28H217.595V12.72H218.925V13H214.613V12.72H216.223V6.28H213.745L213.647 7.05C213.647 7.05933 213.647 7.06867 213.647 7.078C213.647 7.08733 213.647 7.09667 213.647 7.106C213.516 8.16067 213.4 9.00067 213.297 9.626C213.194 10.242 213.064 10.774 212.905 11.222C212.709 11.9033 212.49 12.3933 212.247 12.692C212.014 12.9813 211.72 13.126 211.365 13.126ZM219.397 13.126C219.267 13.126 219.136 13.1027 219.005 13.056C218.875 13.0187 218.763 12.9673 218.669 12.902V11.488H218.739C218.861 11.6373 218.996 11.754 219.145 11.838C219.304 11.9127 219.477 11.95 219.663 11.95C220.093 11.95 220.433 11.67 220.685 11.11C220.835 10.7647 220.942 10.34 221.007 9.836C221.082 9.332 221.143 8.744 221.189 8.072C221.189 8.03467 221.189 8.002 221.189 7.974C221.199 7.946 221.203 7.91333 221.203 7.876C221.203 7.74533 221.199 7.61467 221.189 7.484C221.189 7.35333 221.185 7.22267 221.175 7.092C221.166 6.96133 221.157 6.83067 221.147 6.7C221.138 6.56 221.124 6.42 221.105 6.28H219.999V6H226.957V6.28H225.627V12.72H226.957V13H222.645V12.72H224.255V6.28H221.777L221.679 7.05C221.679 7.05933 221.679 7.06867 221.679 7.078C221.679 7.08733 221.679 7.09667 221.679 7.106C221.549 8.16067 221.432 9.00067 221.329 9.626C221.227 10.242 221.096 10.774 220.937 11.222C220.741 11.9033 220.522 12.3933 220.279 12.692C220.046 12.9813 219.752 13.126 219.397 13.126ZM233.814 12.482C233.553 12.6313 233.235 12.7667 232.862 12.888C232.61 12.972 232.353 13.0327 232.092 13.07C231.831 13.1167 231.569 13.14 231.308 13.14C230.58 13.14 229.927 12.9907 229.348 12.692C228.769 12.384 228.317 11.9547 227.99 11.404C227.673 10.844 227.514 10.2093 227.514 9.5C227.514 8.8 227.673 8.17467 227.99 7.624C228.307 7.064 228.741 6.63 229.292 6.322C229.843 6.014 230.463 5.86 231.154 5.86C231.873 5.86 232.503 6.014 233.044 6.322C233.585 6.62067 234.005 7.04533 234.304 7.596C234.612 8.14667 234.771 8.77667 234.78 9.486C234.78 9.50467 234.78 9.528 234.78 9.556C234.78 9.584 234.78 9.612 234.78 9.64H228.942C228.951 10.312 229.054 10.8953 229.25 11.39C229.455 11.8753 229.726 12.2487 230.062 12.51C230.398 12.7713 230.781 12.902 231.21 12.902C231.574 12.902 231.961 12.7947 232.372 12.58C232.783 12.356 233.128 12.0807 233.408 11.754C233.688 11.4273 233.828 11.1193 233.828 10.83V10.55H234.094V13.476H233.814V12.482ZM233.352 9.36C233.343 8.66 233.245 8.06733 233.058 7.582C232.881 7.08733 232.629 6.71867 232.302 6.476C231.985 6.224 231.602 6.098 231.154 6.098C230.715 6.098 230.333 6.23333 230.006 6.504C229.679 6.76533 229.423 7.14333 229.236 7.638C229.049 8.13267 228.951 8.70667 228.942 9.36H233.352ZM234.893 12.608L235.985 12.706C236.218 11.9033 236.419 11.082 236.587 10.242C236.764 9.402 236.876 8.59933 236.923 7.834C236.923 7.76867 236.923 7.69867 236.923 7.624C236.923 7.54933 236.918 7.46533 236.909 7.372C236.89 7.25067 236.862 7.10133 236.825 6.924C236.797 6.73733 236.755 6.52267 236.699 6.28H235.537V6H242.845V6.28H241.571V12.72H242.831V15.044H242.565V14.008C242.565 13.868 242.509 13.7187 242.397 13.56C242.294 13.4013 242.154 13.266 241.977 13.154C241.8 13.0513 241.618 13 241.431 13H236.335C236.167 13 235.976 13.056 235.761 13.168C235.556 13.28 235.374 13.4153 235.215 13.574C235.056 13.7327 234.968 13.8727 234.949 13.994L234.935 15.044H234.697L234.893 12.608ZM240.199 12.72V6.28H237.567C237.38 7.57733 237.175 8.76267 236.951 9.836C236.736 10.9093 236.508 11.8707 236.265 12.72H240.199ZM242.127 12.72H243.093L245.879 8.674L243.835 6.28H242.743V6H246.005V6.28H244.213L246.887 9.36H247.811V3.48H246.341V3.2H249.169V9.36H250.093L252.767 6.28H250.975V6H254.237V6.28H253.145L251.101 8.674L253.887 12.72H254.853V13H251.031V12.72H252.319L250.121 9.64H249.169V12.72H250.331V13H246.649V12.72H247.811V9.64H246.859L244.661 12.72H245.949V13H242.127V12.72ZM203.391 28.4C203.391 28.204 203.321 27.994 203.181 27.77C203.041 27.5553 202.859 27.3733 202.635 27.224C202.411 27.0747 202.173 27 201.921 27H192.667V26.72H194.207V17.48H192.667V17.2H197.455V17.48H195.817V26.72H200.507V17.48H198.869V17.2H203.657V17.48H202.117V26.72H203.657V29.73H203.391V28.4ZM205.019 20.28H203.801V20H207.791V20.28H206.391V25.18L210.339 20H212.579V20.28H211.249V26.72H212.579V27H208.421V26.72H209.877V21.092L205.201 27.308H205.019V20.28ZM216.77 29.52H218.31V25.348C218.114 25.9173 217.816 26.3607 217.414 26.678C217.013 26.986 216.537 27.14 215.986 27.14C215.454 27.14 214.974 26.986 214.544 26.678C214.115 26.37 213.774 25.9407 213.522 25.39C213.27 24.83 213.144 24.2 213.144 23.5C213.144 22.7907 213.27 22.1607 213.522 21.61C213.774 21.0593 214.115 20.63 214.544 20.322C214.974 20.014 215.454 19.86 215.986 19.86C216.537 19.86 217.013 20.014 217.414 20.322C217.816 20.63 218.114 21.0687 218.31 21.638V17.48H216.77V17.2H219.668V21.638C219.864 21.0687 220.163 20.63 220.564 20.322C220.966 20.014 221.442 19.86 221.992 19.86C222.524 19.86 223.005 20.014 223.434 20.322C223.864 20.63 224.204 21.0593 224.456 21.61C224.708 22.1607 224.834 22.7907 224.834 23.5C224.834 24.2 224.708 24.83 224.456 25.39C224.204 25.9407 223.864 26.37 223.434 26.678C223.005 26.986 222.524 27.14 221.992 27.14C221.442 27.14 220.966 26.986 220.564 26.678C220.163 26.3607 219.864 25.9173 219.668 25.348V29.52H221.208V29.8H216.77V29.52ZM216.406 26.748C216.78 26.748 217.116 26.608 217.414 26.328C217.713 26.0387 217.946 25.6467 218.114 25.152C218.282 24.648 218.366 24.0973 218.366 23.5C218.366 22.8933 218.282 22.3427 218.114 21.848C217.946 21.3533 217.713 20.966 217.414 20.686C217.116 20.3967 216.78 20.252 216.406 20.252C216.052 20.252 215.734 20.378 215.454 20.63C215.184 20.8727 214.969 21.2367 214.81 21.722C214.661 22.2073 214.586 22.8 214.586 23.5C214.586 24.2 214.661 24.7927 214.81 25.278C214.969 25.7633 215.184 26.132 215.454 26.384C215.734 26.6267 216.052 26.748 216.406 26.748ZM221.572 26.748C221.927 26.748 222.24 26.6267 222.51 26.384C222.79 26.132 223.005 25.7633 223.154 25.278C223.313 24.7927 223.392 24.2 223.392 23.5C223.392 22.8 223.313 22.2073 223.154 21.722C223.005 21.2367 222.79 20.8727 222.51 20.63C222.24 20.378 221.927 20.252 221.572 20.252C221.199 20.252 220.863 20.3967 220.564 20.686C220.266 20.966 220.032 21.3533 219.864 21.848C219.696 22.3427 219.612 22.8933 219.612 23.5C219.612 24.0973 219.696 24.648 219.864 25.152C220.032 25.6467 220.266 26.0387 220.564 26.328C220.863 26.608 221.199 26.748 221.572 26.748ZM225.39 29.52H226.72V20.28H225.39V20H228.078V21.708C228.293 21.12 228.624 20.6673 229.072 20.35C229.52 20.0233 230.052 19.86 230.668 19.86C231.256 19.86 231.788 20.014 232.264 20.322C232.749 20.63 233.127 21.0593 233.398 21.61C233.678 22.1607 233.818 22.7907 233.818 23.5C233.818 24.2093 233.678 24.8393 233.398 25.39C233.127 25.9407 232.749 26.37 232.264 26.678C231.788 26.986 231.256 27.14 230.668 27.14C230.052 27.14 229.52 26.9767 229.072 26.65C228.633 26.3233 228.302 25.8707 228.078 25.292V29.52H230.038V29.8H225.39V29.52ZM230.276 26.762C230.687 26.762 231.046 26.6407 231.354 26.398C231.671 26.146 231.919 25.7773 232.096 25.292C232.273 24.7973 232.362 24.2 232.362 23.5C232.362 22.8 232.273 22.2073 232.096 21.722C231.919 21.2273 231.671 20.8587 231.354 20.616C231.046 20.364 230.687 20.238 230.276 20.238C229.847 20.238 229.459 20.3827 229.114 20.672C228.778 20.9613 228.512 21.3533 228.316 21.848C228.12 22.3427 228.022 22.8933 228.022 23.5C228.022 24.1067 228.12 24.6573 228.316 25.152C228.512 25.6467 228.778 26.0387 229.114 26.328C229.459 26.6173 229.847 26.762 230.276 26.762ZM238.719 27.14C237.982 27.14 237.319 26.986 236.731 26.678C236.153 26.3607 235.695 25.9267 235.359 25.376C235.033 24.816 234.869 24.1907 234.869 23.5C234.869 22.8 235.033 22.1747 235.359 21.624C235.695 21.0733 236.153 20.644 236.731 20.336C237.319 20.0187 237.982 19.86 238.719 19.86C239.457 19.86 240.115 20.0187 240.693 20.336C241.281 20.644 241.739 21.078 242.065 21.638C242.401 22.1887 242.569 22.8093 242.569 23.5C242.569 24.1907 242.401 24.816 242.065 25.376C241.739 25.9267 241.281 26.3607 240.693 26.678C240.105 26.986 239.447 27.14 238.719 27.14ZM238.719 26.888C239.205 26.888 239.629 26.7573 239.993 26.496C240.357 26.2253 240.637 25.8333 240.833 25.32C241.029 24.8067 241.127 24.2 241.127 23.5C241.127 22.7907 241.029 22.184 240.833 21.68C240.637 21.1667 240.357 20.7747 239.993 20.504C239.629 20.2333 239.205 20.098 238.719 20.098C238.234 20.098 237.805 20.2333 237.431 20.504C237.067 20.7747 236.787 21.1667 236.591 21.68C236.395 22.184 236.297 22.7907 236.297 23.5C236.297 24.2 236.395 24.8067 236.591 25.32C236.787 25.8333 237.067 26.2253 237.431 26.496C237.805 26.7573 238.234 26.888 238.719 26.888ZM243.123 26.72H244.453V20.28H243.123V20H246.973C247.925 20 248.662 20.1587 249.185 20.476C249.717 20.7933 249.983 21.2367 249.983 21.806C249.983 22.2167 249.838 22.562 249.549 22.842C249.269 23.1127 248.853 23.3087 248.303 23.43V23.5C248.937 23.6027 249.427 23.7987 249.773 24.088C250.118 24.3773 250.291 24.746 250.291 25.194C250.291 25.7633 250.02 26.2067 249.479 26.524C248.947 26.8413 248.195 27 247.225 27H243.123V26.72ZM247.183 26.734C247.752 26.734 248.191 26.5987 248.499 26.328C248.807 26.048 248.961 25.6513 248.961 25.138C248.961 24.6527 248.802 24.2793 248.485 24.018C248.177 23.7567 247.729 23.626 247.141 23.626H245.811V26.734H247.183ZM246.889 23.374C247.477 23.374 247.929 23.2433 248.247 22.982C248.564 22.7113 248.723 22.3287 248.723 21.834C248.723 21.33 248.569 20.9427 248.261 20.672C247.953 20.4013 247.514 20.266 246.945 20.266H245.811V23.374H246.889ZM250.704 26.72H252.034V20.28H250.704V20H254.722V20.28H253.392V22.94H254.582C255.543 22.94 256.29 23.122 256.822 23.486C257.363 23.8407 257.634 24.3353 257.634 24.97C257.634 25.6047 257.363 26.104 256.822 26.468C256.29 26.8227 255.543 27 254.582 27H250.704V26.72ZM254.442 26.72C255.021 26.72 255.469 26.566 255.786 26.258C256.113 25.95 256.276 25.5207 256.276 24.97C256.276 24.41 256.113 23.9807 255.786 23.682C255.469 23.374 255.021 23.22 254.442 23.22H253.392V26.72H254.442ZM257.536 26.72H259.006V20.28H257.536V20H260.364V26.72H261.834V27H257.536V26.72ZM261.055 26.72H262.315L264.765 23.64L262.175 20.28H261.111V20H265.087V20.28H263.841L265.871 22.828L267.901 20.28H266.487V20H269.357V20.28H268.251L266.039 23.052L268.825 26.72H269.833V27H265.647V26.72H267.159L264.933 23.864L262.665 26.72H264.247V27H261.055V26.72ZM194.627 40.72H196.475V31.48H194.571C194.375 31.48 194.16 31.5687 193.927 31.746C193.694 31.9233 193.498 32.1427 193.339 32.404C193.18 32.656 193.101 32.8893 193.101 33.104V34.42H192.835V30.22H193.115V31.2H201.445V30.22H201.725V34.42H201.473V33.104C201.473 32.8893 201.394 32.656 201.235 32.404C201.076 32.1427 200.88 31.9233 200.647 31.746C200.414 31.5687 200.199 31.48 200.003 31.48H198.085V40.72H199.933V41H194.627V40.72ZM207.939 40.482C207.678 40.6313 207.36 40.7667 206.987 40.888C206.735 40.972 206.478 41.0327 206.217 41.07C205.956 41.1167 205.694 41.14 205.433 41.14C204.705 41.14 204.052 40.9907 203.473 40.692C202.894 40.384 202.442 39.9547 202.115 39.404C201.798 38.844 201.639 38.2093 201.639 37.5C201.639 36.8 201.798 36.1747 202.115 35.624C202.432 35.064 202.866 34.63 203.417 34.322C203.968 34.014 204.588 33.86 205.279 33.86C205.998 33.86 206.628 34.014 207.169 34.322C207.71 34.6207 208.13 35.0453 208.429 35.596C208.737 36.1467 208.896 36.7767 208.905 37.486C208.905 37.5047 208.905 37.528 208.905 37.556C208.905 37.584 208.905 37.612 208.905 37.64H203.067C203.076 38.312 203.179 38.8953 203.375 39.39C203.58 39.8753 203.851 40.2487 204.187 40.51C204.523 40.7713 204.906 40.902 205.335 40.902C205.699 40.902 206.086 40.7947 206.497 40.58C206.908 40.356 207.253 40.0807 207.533 39.754C207.813 39.4273 207.953 39.1193 207.953 38.83V38.55H208.219V41.476H207.939V40.482ZM207.477 37.36C207.468 36.66 207.37 36.0673 207.183 35.582C207.006 35.0873 206.754 34.7187 206.427 34.476C206.11 34.224 205.727 34.098 205.279 34.098C204.84 34.098 204.458 34.2333 204.131 34.504C203.804 34.7653 203.548 35.1433 203.361 35.638C203.174 36.1327 203.076 36.7067 203.067 37.36H207.477ZM208.724 40.72H209.984L212.434 37.64L209.844 34.28H208.78V34H212.756V34.28H211.51L213.54 36.828L215.57 34.28H214.156V34H217.026V34.28H215.92L213.708 37.052L216.494 40.72H217.502V41H213.316V40.72H214.828L212.602 37.864L210.334 40.72H211.916V41H208.724V40.72ZM216.64 40.72H217.97V34.28H216.64V34H219.328V37.36H222.828V34.28H221.358V34H225.53V34.28H224.2V40.72H225.53V41H221.54V40.72H222.828V37.64H219.328V40.72H220.63V41H216.64V40.72ZM229.942 41.14C229.205 41.14 228.542 40.986 227.954 40.678C227.375 40.3607 226.918 39.9267 226.582 39.376C226.255 38.816 226.092 38.1907 226.092 37.5C226.092 36.8 226.255 36.1747 226.582 35.624C226.918 35.0733 227.375 34.644 227.954 34.336C228.542 34.0187 229.205 33.86 229.942 33.86C230.679 33.86 231.337 34.0187 231.916 34.336C232.504 34.644 232.961 35.078 233.288 35.638C233.624 36.1887 233.792 36.8093 233.792 37.5C233.792 38.1907 233.624 38.816 233.288 39.376C232.961 39.9267 232.504 40.3607 231.916 40.678C231.328 40.986 230.67 41.14 229.942 41.14ZM229.942 40.888C230.427 40.888 230.852 40.7573 231.216 40.496C231.58 40.2253 231.86 39.8333 232.056 39.32C232.252 38.8067 232.35 38.2 232.35 37.5C232.35 36.7907 232.252 36.184 232.056 35.68C231.86 35.1667 231.58 34.7747 231.216 34.504C230.852 34.2333 230.427 34.098 229.942 34.098C229.457 34.098 229.027 34.2333 228.654 34.504C228.29 34.7747 228.01 35.1667 227.814 35.68C227.618 36.184 227.52 36.7907 227.52 37.5C227.52 38.2 227.618 38.8067 227.814 39.32C228.01 39.8333 228.29 40.2253 228.654 40.496C229.027 40.7573 229.457 40.888 229.942 40.888ZM234.751 41.126C234.621 41.126 234.49 41.1027 234.359 41.056C234.229 41.0187 234.117 40.9673 234.023 40.902V39.488H234.093C234.215 39.6373 234.35 39.754 234.499 39.838C234.658 39.9127 234.831 39.95 235.017 39.95C235.447 39.95 235.787 39.67 236.039 39.11C236.189 38.7647 236.296 38.34 236.361 37.836C236.436 37.332 236.497 36.744 236.543 36.072C236.543 36.0347 236.543 36.002 236.543 35.974C236.553 35.946 236.557 35.9133 236.557 35.876C236.557 35.7453 236.553 35.6147 236.543 35.484C236.543 35.3533 236.539 35.2227 236.529 35.092C236.52 34.9613 236.511 34.8307 236.501 34.7C236.492 34.56 236.478 34.42 236.459 34.28H235.353V34H242.311V34.28H240.981V40.72H242.311V41H237.999V40.72H239.609V34.28H237.131L237.033 35.05C237.033 35.0593 237.033 35.0687 237.033 35.078C237.033 35.0873 237.033 35.0967 237.033 35.106C236.903 36.1607 236.786 37.0007 236.683 37.626C236.581 38.242 236.45 38.774 236.291 39.222C236.095 39.9033 235.876 40.3933 235.633 40.692C235.4 40.9813 235.106 41.126 234.751 41.126ZM246.718 41.14C245.981 41.14 245.318 40.986 244.73 40.678C244.151 40.3607 243.694 39.9267 243.358 39.376C243.031 38.816 242.868 38.1907 242.868 37.5C242.868 36.8 243.031 36.1747 243.358 35.624C243.694 35.0733 244.151 34.644 244.73 34.336C245.318 34.0187 245.981 33.86 246.718 33.86C247.455 33.86 248.113 34.0187 248.692 34.336C249.28 34.644 249.737 35.078 250.064 35.638C250.4 36.1887 250.568 36.8093 250.568 37.5C250.568 38.1907 250.4 38.816 250.064 39.376C249.737 39.9267 249.28 40.3607 248.692 40.678C248.104 40.986 247.446 41.14 246.718 41.14ZM246.718 40.888C247.203 40.888 247.628 40.7573 247.992 40.496C248.356 40.2253 248.636 39.8333 248.832 39.32C249.028 38.8067 249.126 38.2 249.126 37.5C249.126 36.7907 249.028 36.184 248.832 35.68C248.636 35.1667 248.356 34.7747 247.992 34.504C247.628 34.2333 247.203 34.098 246.718 34.098C246.233 34.098 245.803 34.2333 245.43 34.504C245.066 34.7747 244.786 35.1667 244.59 35.68C244.394 36.184 244.296 36.7907 244.296 37.5C244.296 38.2 244.394 38.8067 244.59 39.32C244.786 39.8333 245.066 40.2253 245.43 40.496C245.803 40.7573 246.233 40.888 246.718 40.888ZM251.121 40.72H252.451V34.28H251.121V34H256.819V33.16H257.099V36.66H256.847V35.54C256.847 35.3813 256.773 35.204 256.623 35.008C256.474 34.8027 256.292 34.63 256.077 34.49C255.863 34.35 255.671 34.28 255.503 34.28H253.809V40.72H255.489V41H251.121V40.72ZM258.636 34.28H257.418V34H261.408V34.28H260.008V39.18L263.956 34H266.196V34.28H264.866V40.72H266.196V41H262.038V40.72H263.494V35.092L258.818 41.308H258.636V34.28ZM267.488 34.28H266.27V34H270.26V34.28H268.86V39.18L272.808 34H275.048V34.28H273.718V40.72H275.048V41H270.89V40.72H272.346V35.092L267.67 41.308H267.488V34.28ZM270.652 33.104C270.158 33.104 269.719 32.9967 269.336 32.782C268.963 32.5673 268.674 32.264 268.468 31.872C268.263 31.48 268.16 31.032 268.16 30.528V30.388H268.384V30.514C268.384 31.0087 268.576 31.382 268.958 31.634C269.341 31.886 269.906 32.012 270.652 32.012C271.408 32.012 271.978 31.886 272.36 31.634C272.743 31.382 272.934 31.0087 272.934 30.514V30.388H273.158V30.528C273.158 31.032 273.051 31.48 272.836 31.872C272.631 32.264 272.337 32.5673 271.954 32.782C271.581 32.9967 271.147 33.104 270.652 33.104Z" fill="#211F20"/>
</svg>
