<svg width="214" height="50" viewBox="0 0 214 50" fill="none" xmlns="http://www.w3.org/2000/svg">
<path d="M24.0676 0.153957C23.1746 0.360399 22.1901 1.20911 22.1901 1.75962C22.1901 1.96606 22.442 2.37895 22.7625 2.67714C23.2204 3.09003 23.6554 3.22765 24.9834 3.29647C26.8837 3.41116 27.7308 3.18178 28.2574 2.35601C29.219 0.887974 26.6547 -0.46537 24.0676 0.153957Z" fill="#3F6745"/>
<path d="M45.5422 4.25994C45.4278 4.51226 45.1072 4.78752 44.8554 4.85633C44.6035 4.92515 44.3975 5.15453 44.3975 5.31509C44.3975 5.4986 44.1227 5.79679 43.7793 5.9803C43.413 6.1638 41.8332 7.63184 40.2534 9.26044C37.8494 11.7377 37.2999 12.403 36.9793 13.4122C36.5901 14.5821 36.5901 14.6279 37.0709 15.4078C37.5059 16.096 37.6433 16.1877 38.1699 16.0501C38.9255 15.8666 39.1773 15.6143 39.7039 14.605C40.2992 13.4352 41.9705 11.1184 42.6345 10.545C43.6419 9.67332 44.1914 9.46688 44.5348 9.83389C45.3362 10.6367 45.4964 14.605 44.8783 18.6192C44.718 19.5137 44.5348 26.3493 44.4204 34.1023C44.2143 48.6221 44.2143 48.668 45.1759 49.4479C45.6109 49.8149 46.3894 49.5855 46.7099 48.9662C46.916 48.5992 46.8931 47.8881 46.7099 46.1678C46.4123 43.7822 46.5725 35.4098 47.1449 20.913C47.5112 11.5772 47.6944 9.26044 47.9692 9.16869C48.1065 9.12281 48.9079 9.69626 49.7321 10.4532C50.6021 11.2331 51.6095 11.9213 52.0903 12.0589C52.5483 12.1736 53.4641 12.6553 54.128 13.114C54.792 13.5728 55.5247 13.9169 55.7536 13.871C56.8068 13.6875 56.097 11.7836 54.6088 10.7514C54.2196 10.4762 52.6856 9.07693 51.1974 7.65478C49.4574 5.95736 48.0607 4.81046 47.2594 4.42051C45.7941 3.70943 45.8399 3.70943 45.5422 4.25994Z" fill="#3F6745"/>
<path d="M61.8206 4.62701C60.195 6.50793 60.0576 7.70071 59.8745 23.3215C59.8058 28.8037 59.6913 36.6256 59.5997 40.6856L59.4852 48.0487L60.3324 48.9892C60.7903 49.5168 61.3169 49.9296 61.5 49.9296C61.958 49.9296 63.6293 49.0351 63.6293 48.7827C63.6293 48.2552 65.9418 45.2962 68.0481 43.1171C70.3606 40.7544 72.1693 39.3552 73.2225 39.08L73.7491 38.9423L73.5889 42.4748C73.4057 46.099 73.566 47.2688 74.3444 48.1405C74.8481 48.7369 75.2144 48.6451 75.8555 47.7964C76.405 47.0624 76.4508 46.7871 76.7942 41.649C76.9774 38.69 77.2292 34.8823 77.3437 33.1849C77.5498 30.3406 77.71 14.6968 77.6413 7.54014C77.5956 5.01696 77.5269 4.46644 77.2292 4.35175C76.8171 4.19119 75.0771 4.94814 75.0542 5.29221C75.0542 5.42984 75.0542 8.68704 75.0771 12.5406C75.1 20.6607 74.5505 33.6436 74.1841 33.6436C74.1154 33.6436 73.2683 32.9096 72.3525 32.038C71.4138 31.1434 70.5895 30.4323 70.5209 30.4323C70.4293 30.4323 70.0172 30.0882 69.5821 29.6754C67.9566 28.2073 66.4226 27.0145 64.5909 25.8447C63.4691 25.1336 62.7135 24.4914 62.7135 24.262C62.7593 20.2478 63.263 10.5221 63.5148 8.80173C63.9499 5.91154 63.9499 5.33809 63.5148 4.51232C63.0569 3.61774 62.6906 3.64067 61.8206 4.62701ZM64.6138 29.6524C65.0259 29.8589 65.7586 30.3635 66.2623 30.7534C67.0865 31.3728 67.6818 31.9003 69.8569 33.9189C70.2232 34.263 70.8185 34.7676 71.1848 35.0199C71.5741 35.2952 71.8717 35.6392 71.8717 35.7998C71.8717 36.1439 71.0017 37.3367 69.9485 38.4147C68.3229 40.1122 67.9108 40.5021 66.7431 41.672C66.1478 42.2454 65.0946 43.3006 64.362 44.0116C63.263 45.1356 63.034 45.2732 62.8509 44.9521C62.5532 44.4016 62.6219 34.1483 62.9425 31.8086C63.3317 28.9413 63.3088 28.9872 64.6138 29.6524Z" fill="#3F6745"/>
<path d="M83.1593 4.67293C82.6556 5.15463 82.129 5.95747 81.9687 6.4621C81.5337 7.93014 81.3047 14.7657 81.1216 31.9463L80.9613 48.0488L81.694 49.0581C82.3121 49.9297 82.5182 50.0673 83.0448 49.9756C83.9606 49.7921 84.8993 49.0122 85.403 48.0258C86.4333 46.0302 91.8824 40.3645 93.737 39.4011C95.271 38.5983 95.3626 38.7818 94.9962 42.1308C94.6986 44.998 94.7673 45.9385 95.3855 47.59C95.706 48.4387 95.8434 48.5764 96.3471 48.5075C96.7592 48.4617 97.0568 48.1635 97.446 47.4065C97.9955 46.3284 98.1558 44.4246 98.9114 29.836C99.2319 23.7803 99.0945 4.85644 98.7282 4.48943C98.3848 4.14536 97.5376 4.37474 96.8965 4.97113C96.3928 5.42989 96.3929 5.4987 96.37 13.9858C96.37 21.8994 96.1181 28.9643 95.7289 32.428L95.5686 33.8501L93.9659 32.3133C93.0959 31.4416 92.0656 30.5241 91.6764 30.2259C91.3101 29.9507 90.4629 29.2166 89.8219 28.6203C89.1808 28.0239 87.8757 27.0375 86.9141 26.4182C84.1667 24.6749 84.3498 25.1795 84.3956 19.4909C84.4414 16.7842 84.5788 13.2747 84.6933 11.669C85.2428 5.10876 85.2428 5.08582 84.8077 4.44355C84.6017 4.09948 84.3269 3.82423 84.2354 3.82423C84.1209 3.82423 83.6401 4.21417 83.1593 4.67293ZM86.0212 29.6754C87.2805 30.3865 88.8602 31.6481 90.6919 33.3914C91.4245 34.0566 92.3404 34.8365 92.7525 35.0888C93.1646 35.3182 93.5538 35.5705 93.5996 35.6164C93.7828 35.7999 91.333 38.4836 87.9215 41.8555L84.3498 45.365L84.1438 42.0849C83.9148 38.2313 84.3956 29.0561 84.8535 29.0561C84.8993 29.0561 85.4259 29.3313 86.0212 29.6754Z" fill="#3F6745"/>
<path d="M31.2329 4.535C30.3629 5.15433 27.5925 8.84735 25.3946 12.311C24.4787 13.7561 23.4484 15.27 23.1279 15.66C22.8074 16.0499 22.1892 16.8527 21.8 17.4262C21.3878 18.0226 20.9757 18.5043 20.8612 18.5043C20.7468 18.5043 20.5178 15.5453 20.3575 11.944C20.037 4.99376 19.9912 4.74144 18.8922 4.74144C18.5946 4.74144 18.1596 4.92495 17.9077 5.15433C17.4727 5.52134 17.4269 5.9801 17.1751 12.8844C17.0377 16.9215 16.8316 24.6058 16.6943 29.9733C16.5798 35.3408 16.4195 41.4882 16.3279 43.6444C16.1677 48.1632 16.2593 48.8513 17.0835 49.2183C17.5643 49.4477 17.8162 49.4018 18.6175 49.0348L19.5562 48.5761L19.4875 42.3828C19.373 35.0655 19.3959 35.0426 21.6626 31.7625C25.6464 26.0738 26.0585 25.5692 27.272 24.7893C28.6457 23.8947 29.0807 23.8718 29.3097 24.6975C29.5386 25.5463 29.5386 32.9552 29.3097 33.781C29.1952 34.171 29.1952 35.0426 29.3097 35.7996C29.4699 36.74 29.4242 37.8869 29.1723 39.7908C28.577 44.3325 28.7602 46.3969 29.8134 47.5668C30.5689 48.4155 31.0268 48.232 31.5305 46.8786C32.1716 45.1124 32.309 41.6717 31.9884 33.9186C31.5534 23.6883 31.6221 20.4311 32.3777 15.1324C32.5837 13.779 32.7898 11.2558 32.8585 9.55843C32.9272 7.86102 33.0874 6.07185 33.2248 5.61309C33.6598 4.12212 32.6066 3.54866 31.2329 4.535ZM28.9433 14.2607C29.6073 14.903 29.6302 15.2471 29.1494 16.9215C28.371 19.5135 27.6612 20.5458 23.975 24.514C22.67 25.8903 21.3192 27.473 20.9757 28.0465C20.6094 28.597 20.1973 29.0558 20.0599 29.0558C19.8996 29.0558 19.8767 28.0924 19.9912 26.1426C20.1286 23.3901 20.1744 23.1836 20.7468 22.5872C21.0902 22.2202 21.4794 21.945 21.6397 21.945C21.7771 21.945 21.9602 21.7156 22.0518 21.4174C22.1205 21.1192 22.6929 20.2246 23.334 19.3989C23.9521 18.596 24.9366 17.2197 25.509 16.3481C26.6767 14.6277 27.5696 13.6873 28.0733 13.6873C28.2565 13.6873 28.6457 13.9396 28.9433 14.2607Z" fill="#3F6745"/>
<path d="M103.537 4.92491C102.461 6.003 102.209 7.1499 102.529 9.39783C102.896 12.1045 103.331 23.6194 103.399 32.8405C103.445 37.1299 103.491 41.4652 103.491 42.4745C103.514 43.4838 103.491 45.0894 103.445 46.0299C103.376 47.5209 103.445 47.8649 103.903 48.6219C104.613 49.7688 105.139 50.044 105.62 49.4935C106.422 48.6219 106.513 46.7868 106.353 33.9874C106.261 25.7297 106.284 21.4862 106.444 21.2568C106.582 21.0274 106.673 21.0045 106.673 21.188C106.673 21.3485 106.902 21.4862 107.2 21.4862C108.23 21.4862 112.008 24.6057 114.046 27.106C114.664 27.863 115.259 28.6199 115.397 28.7805C115.557 28.9869 115.58 31.6019 115.488 37.1529C115.305 45.4106 115.351 46.1446 116.198 48.1172C116.564 48.9889 117.778 49.7917 118.487 49.6541C118.877 49.5853 118.922 49.2871 118.991 46.1446C119.037 44.2407 118.9 39.5384 118.694 35.6848C118.281 27.2207 118.259 21.6009 118.625 15.9581C118.785 13.6414 118.922 10.2695 118.922 8.50324C118.922 5.61305 118.877 5.20017 118.487 4.76434C117.961 4.16795 116.953 4.14502 116.61 4.67259C116.015 5.63599 115.374 10.0401 115.374 13.1597C115.374 14.2148 115.282 15.0635 115.191 15.0635C115.099 15.0635 114.595 14.6277 114.092 14.0772C112.924 12.8615 107.91 7.03521 107.063 5.93418C106.719 5.49836 106.101 4.99372 105.689 4.85609C105.3 4.69553 104.796 4.51202 104.59 4.42027C104.338 4.30558 103.995 4.48909 103.537 4.92491ZM108.62 12.8615C109.261 13.5267 110.291 14.6277 110.932 15.3158C111.573 16.004 112.672 17.0133 113.405 17.5867C114.962 18.8254 115.374 19.5135 115.374 20.8898C115.374 21.4632 115.488 22.1973 115.603 22.5413C115.74 22.8854 115.786 23.3212 115.717 23.5047C115.626 23.757 115.122 23.3442 113.931 22.0596C113.038 21.0733 111.756 19.9264 111.092 19.4906C110.428 19.0777 109.879 18.6419 109.879 18.5272C109.879 18.4125 109.696 18.2748 109.49 18.206C109.261 18.1143 108.413 17.7014 107.612 17.2426L106.124 16.4398L106.193 14.0772C106.216 12.7927 106.307 11.6687 106.376 11.554C106.605 11.1641 107.521 11.6916 108.62 12.8615Z" fill="#3F6745"/>
<path d="M10.7867 4.90231C10.5119 5.017 9.55032 6.39328 8.35976 8.41183C8.01633 8.98528 7.65 9.6046 7.53552 9.78811C7.42105 9.97161 6.61971 11.3708 5.72678 12.8847C4.83386 14.3987 3.84935 15.9355 3.52882 16.3025C3.20828 16.6695 2.95643 17.0365 2.95643 17.1283C2.95643 17.22 2.38404 17.9541 1.67429 18.7339C0.506617 20.0644 0.39214 20.2479 0.529513 21.0048C0.781363 22.7022 0.689781 32.795 0.346349 37.8872C-0.11156 44.5851 -0.11156 46.6266 0.323453 47.8882C0.758467 49.1039 1.19348 49.4709 2.17799 49.4709C2.81906 49.4709 2.95643 49.3562 3.18539 48.6452C3.39145 48.0488 3.39145 47.5671 3.20828 46.833C2.86485 45.5026 2.88775 42.773 3.29986 36.9926C3.6204 32.2445 3.6204 32.1986 4.37595 30.9599C5.31466 29.4001 7.37526 26.877 8.06212 26.4411C8.33686 26.2806 8.84056 26.0741 9.184 25.9824C10.054 25.7759 10.2601 26.2806 10.5577 29.3543C10.7867 31.5334 10.7638 32.4738 10.3975 35.5934C9.87086 40.1351 9.6877 47.0854 10.0769 47.5441C10.4204 47.9799 11.6567 47.957 12.2978 47.4983L12.8015 47.1542V26.0971C12.8015 7.08142 12.7557 5.017 12.4352 4.87937C12.023 4.7188 11.2217 4.7188 10.7867 4.90231ZM9.6877 13.0224C9.87086 13.9399 9.87086 17.0365 9.6877 18.9863C9.57322 20.2249 9.41295 20.6378 8.84056 21.2801C8.47424 21.7159 7.28367 23.0692 6.20759 24.3079C4.81096 25.8906 4.16989 26.4641 4.00962 26.3035C3.57461 25.8677 3.68909 21.0966 4.19279 19.6515C4.74228 17.977 6.25338 15.385 7.35236 14.261C7.83316 13.7564 8.22239 13.2518 8.22239 13.1371C8.22239 12.8847 8.93215 12.3342 9.27558 12.3113C9.41295 12.3113 9.59611 12.6324 9.6877 13.0224Z" fill="#3F6745"/>
<path d="M51.4507 17.5182C50.7639 18.2751 50.7181 19.0779 51.2905 20.1102C51.84 21.0965 52.71 21.5094 53.1679 21.0506C53.3282 20.8901 53.4426 20.0643 53.4426 19.0091V17.2429L52.6184 17.1741C52.0689 17.1282 51.7026 17.2429 51.4507 17.5182Z" fill="#3F6745"/>
<path d="M131.252 16.72H132.792V7.48H131.252V7.2H135.942V7.48H134.402V11.96H135.536L139.372 7.48H137.468V7.2H141.094V7.48H139.736L136.726 10.994L140.87 16.72H142.102V17H137.244V16.72H139.008L135.606 12.24H134.402V16.72H135.942V17H131.252V16.72ZM145.14 17.14C144.403 17.14 143.74 16.986 143.152 16.678C142.574 16.3607 142.116 15.9267 141.78 15.376C141.454 14.816 141.29 14.1907 141.29 13.5C141.29 12.8 141.454 12.1747 141.78 11.624C142.116 11.0733 142.574 10.644 143.152 10.336C143.74 10.0187 144.403 9.86 145.14 9.86C145.878 9.86 146.536 10.0187 147.114 10.336C147.702 10.644 148.16 11.078 148.486 11.638C148.822 12.1887 148.99 12.8093 148.99 13.5C148.99 14.1907 148.822 14.816 148.486 15.376C148.16 15.9267 147.702 16.3607 147.114 16.678C146.526 16.986 145.868 17.14 145.14 17.14ZM145.14 16.888C145.626 16.888 146.05 16.7573 146.414 16.496C146.778 16.2253 147.058 15.8333 147.254 15.32C147.45 14.8067 147.548 14.2 147.548 13.5C147.548 12.7907 147.45 12.184 147.254 11.68C147.058 11.1667 146.778 10.7747 146.414 10.504C146.05 10.2333 145.626 10.098 145.14 10.098C144.655 10.098 144.226 10.2333 143.852 10.504C143.488 10.7747 143.208 11.1667 143.012 11.68C142.816 12.184 142.718 12.7907 142.718 13.5C142.718 14.2 142.816 14.8067 143.012 15.32C143.208 15.8333 143.488 16.2253 143.852 16.496C144.226 16.7573 144.655 16.888 145.14 16.888ZM149.95 17.126C149.819 17.126 149.689 17.1027 149.558 17.056C149.427 17.0187 149.315 16.9673 149.222 16.902V15.488H149.292C149.413 15.6373 149.549 15.754 149.698 15.838C149.857 15.9127 150.029 15.95 150.216 15.95C150.645 15.95 150.986 15.67 151.238 15.11C151.387 14.7647 151.495 14.34 151.56 13.836C151.635 13.332 151.695 12.744 151.742 12.072C151.742 12.0347 151.742 12.002 151.742 11.974C151.751 11.946 151.756 11.9133 151.756 11.876C151.756 11.7453 151.751 11.6147 151.742 11.484C151.742 11.3533 151.737 11.2227 151.728 11.092C151.719 10.9613 151.709 10.8307 151.7 10.7C151.691 10.56 151.677 10.42 151.658 10.28H150.552V10H157.51V10.28H156.18V16.72H157.51V17H153.198V16.72H154.808V10.28H152.33L152.232 11.05C152.232 11.0593 152.232 11.0687 152.232 11.078C152.232 11.0873 152.232 11.0967 152.232 11.106C152.101 12.1607 151.985 13.0007 151.882 13.626C151.779 14.242 151.649 14.774 151.49 15.222C151.294 15.9033 151.075 16.3933 150.832 16.692C150.599 16.9813 150.305 17.126 149.95 17.126ZM157.982 17.126C157.852 17.126 157.721 17.1027 157.59 17.056C157.46 17.0187 157.348 16.9673 157.254 16.902V15.488H157.324C157.446 15.6373 157.581 15.754 157.73 15.838C157.889 15.9127 158.062 15.95 158.248 15.95C158.678 15.95 159.018 15.67 159.27 15.11C159.42 14.7647 159.527 14.34 159.592 13.836C159.667 13.332 159.728 12.744 159.774 12.072C159.774 12.0347 159.774 12.002 159.774 11.974C159.784 11.946 159.788 11.9133 159.788 11.876C159.788 11.7453 159.784 11.6147 159.774 11.484C159.774 11.3533 159.77 11.2227 159.76 11.092C159.751 10.9613 159.742 10.8307 159.732 10.7C159.723 10.56 159.709 10.42 159.69 10.28H158.584V10H165.542V10.28H164.212V16.72H165.542V17H161.23V16.72H162.84V10.28H160.362L160.264 11.05C160.264 11.0593 160.264 11.0687 160.264 11.078C160.264 11.0873 160.264 11.0967 160.264 11.106C160.134 12.1607 160.017 13.0007 159.914 13.626C159.812 14.242 159.681 14.774 159.522 15.222C159.326 15.9033 159.107 16.3933 158.864 16.692C158.631 16.9813 158.337 17.126 157.982 17.126ZM172.399 16.482C172.138 16.6313 171.82 16.7667 171.447 16.888C171.195 16.972 170.938 17.0327 170.677 17.07C170.416 17.1167 170.154 17.14 169.893 17.14C169.165 17.14 168.512 16.9907 167.933 16.692C167.354 16.384 166.902 15.9547 166.575 15.404C166.258 14.844 166.099 14.2093 166.099 13.5C166.099 12.8 166.258 12.1747 166.575 11.624C166.892 11.064 167.326 10.63 167.877 10.322C168.428 10.014 169.048 9.86 169.739 9.86C170.458 9.86 171.088 10.014 171.629 10.322C172.17 10.6207 172.59 11.0453 172.889 11.596C173.197 12.1467 173.356 12.7767 173.365 13.486C173.365 13.5047 173.365 13.528 173.365 13.556C173.365 13.584 173.365 13.612 173.365 13.64H167.527C167.536 14.312 167.639 14.8953 167.835 15.39C168.04 15.8753 168.311 16.2487 168.647 16.51C168.983 16.7713 169.366 16.902 169.795 16.902C170.159 16.902 170.546 16.7947 170.957 16.58C171.368 16.356 171.713 16.0807 171.993 15.754C172.273 15.4273 172.413 15.1193 172.413 14.83V14.55H172.679V17.476H172.399V16.482ZM171.937 13.36C171.928 12.66 171.83 12.0673 171.643 11.582C171.466 11.0873 171.214 10.7187 170.887 10.476C170.57 10.224 170.187 10.098 169.739 10.098C169.3 10.098 168.918 10.2333 168.591 10.504C168.264 10.7653 168.008 11.1433 167.821 11.638C167.634 12.1327 167.536 12.7067 167.527 13.36H171.937ZM173.478 16.608L174.57 16.706C174.803 15.9033 175.004 15.082 175.172 14.242C175.349 13.402 175.461 12.5993 175.508 11.834C175.508 11.7687 175.508 11.6987 175.508 11.624C175.508 11.5493 175.503 11.4653 175.494 11.372C175.475 11.2507 175.447 11.1013 175.41 10.924C175.382 10.7373 175.34 10.5227 175.284 10.28H174.122V10H181.43V10.28H180.156V16.72H181.416V19.044H181.15V18.008C181.15 17.868 181.094 17.7187 180.982 17.56C180.879 17.4013 180.739 17.266 180.562 17.154C180.385 17.0513 180.203 17 180.016 17H174.92C174.752 17 174.561 17.056 174.346 17.168C174.141 17.28 173.959 17.4153 173.8 17.574C173.641 17.7327 173.553 17.8727 173.534 17.994L173.52 19.044H173.282L173.478 16.608ZM178.784 16.72V10.28H176.152C175.965 11.5773 175.76 12.7627 175.536 13.836C175.321 14.9093 175.093 15.8707 174.85 16.72H178.784ZM180.711 16.72H181.677L184.463 12.674L182.419 10.28H181.327V10H184.589V10.28H182.797L185.471 13.36H186.395V7.48H184.925V7.2H187.753V13.36H188.677L191.351 10.28H189.559V10H192.821V10.28H191.729L189.685 12.674L192.471 16.72H193.437V17H189.615V16.72H190.903L188.705 13.64H187.753V16.72H188.915V17H185.233V16.72H186.395V13.64H185.443L183.245 16.72H184.533V17H180.711V16.72ZM141.976 32.4C141.976 32.204 141.906 31.994 141.766 31.77C141.626 31.5553 141.444 31.3733 141.22 31.224C140.996 31.0747 140.758 31 140.506 31H131.252V30.72H132.792V21.48H131.252V21.2H136.04V21.48H134.402V30.72H139.092V21.48H137.454V21.2H142.242V21.48H140.702V30.72H142.242V33.73H141.976V32.4ZM143.604 24.28H142.386V24H146.376V24.28H144.976V29.18L148.924 24H151.164V24.28H149.834V30.72H151.164V31H147.006V30.72H148.462V25.092L143.786 31.308H143.604V24.28ZM155.355 33.52H156.895V29.348C156.699 29.9173 156.401 30.3607 155.999 30.678C155.598 30.986 155.122 31.14 154.571 31.14C154.039 31.14 153.559 30.986 153.129 30.678C152.7 30.37 152.359 29.9407 152.107 29.39C151.855 28.83 151.729 28.2 151.729 27.5C151.729 26.7907 151.855 26.1607 152.107 25.61C152.359 25.0593 152.7 24.63 153.129 24.322C153.559 24.014 154.039 23.86 154.571 23.86C155.122 23.86 155.598 24.014 155.999 24.322C156.401 24.63 156.699 25.0687 156.895 25.638V21.48H155.355V21.2H158.253V25.638C158.449 25.0687 158.748 24.63 159.149 24.322C159.551 24.014 160.027 23.86 160.577 23.86C161.109 23.86 161.59 24.014 162.019 24.322C162.449 24.63 162.789 25.0593 163.041 25.61C163.293 26.1607 163.419 26.7907 163.419 27.5C163.419 28.2 163.293 28.83 163.041 29.39C162.789 29.9407 162.449 30.37 162.019 30.678C161.59 30.986 161.109 31.14 160.577 31.14C160.027 31.14 159.551 30.986 159.149 30.678C158.748 30.3607 158.449 29.9173 158.253 29.348V33.52H159.793V33.8H155.355V33.52ZM154.991 30.748C155.365 30.748 155.701 30.608 155.999 30.328C156.298 30.0387 156.531 29.6467 156.699 29.152C156.867 28.648 156.951 28.0973 156.951 27.5C156.951 26.8933 156.867 26.3427 156.699 25.848C156.531 25.3533 156.298 24.966 155.999 24.686C155.701 24.3967 155.365 24.252 154.991 24.252C154.637 24.252 154.319 24.378 154.039 24.63C153.769 24.8727 153.554 25.2367 153.395 25.722C153.246 26.2073 153.171 26.8 153.171 27.5C153.171 28.2 153.246 28.7927 153.395 29.278C153.554 29.7633 153.769 30.132 154.039 30.384C154.319 30.6267 154.637 30.748 154.991 30.748ZM160.157 30.748C160.512 30.748 160.825 30.6267 161.095 30.384C161.375 30.132 161.59 29.7633 161.739 29.278C161.898 28.7927 161.977 28.2 161.977 27.5C161.977 26.8 161.898 26.2073 161.739 25.722C161.59 25.2367 161.375 24.8727 161.095 24.63C160.825 24.378 160.512 24.252 160.157 24.252C159.784 24.252 159.448 24.3967 159.149 24.686C158.851 24.966 158.617 25.3533 158.449 25.848C158.281 26.3427 158.197 26.8933 158.197 27.5C158.197 28.0973 158.281 28.648 158.449 29.152C158.617 29.6467 158.851 30.0387 159.149 30.328C159.448 30.608 159.784 30.748 160.157 30.748ZM163.975 33.52H165.305V24.28H163.975V24H166.663V25.708C166.877 25.12 167.209 24.6673 167.657 24.35C168.105 24.0233 168.637 23.86 169.253 23.86C169.841 23.86 170.373 24.014 170.849 24.322C171.334 24.63 171.712 25.0593 171.983 25.61C172.263 26.1607 172.403 26.7907 172.403 27.5C172.403 28.2093 172.263 28.8393 171.983 29.39C171.712 29.9407 171.334 30.37 170.849 30.678C170.373 30.986 169.841 31.14 169.253 31.14C168.637 31.14 168.105 30.9767 167.657 30.65C167.218 30.3233 166.887 29.8707 166.663 29.292V33.52H168.623V33.8H163.975V33.52ZM168.861 30.762C169.271 30.762 169.631 30.6407 169.939 30.398C170.256 30.146 170.503 29.7773 170.681 29.292C170.858 28.7973 170.947 28.2 170.947 27.5C170.947 26.8 170.858 26.2073 170.681 25.722C170.503 25.2273 170.256 24.8587 169.939 24.616C169.631 24.364 169.271 24.238 168.861 24.238C168.431 24.238 168.044 24.3827 167.699 24.672C167.363 24.9613 167.097 25.3533 166.901 25.848C166.705 26.3427 166.607 26.8933 166.607 27.5C166.607 28.1067 166.705 28.6573 166.901 29.152C167.097 29.6467 167.363 30.0387 167.699 30.328C168.044 30.6173 168.431 30.762 168.861 30.762ZM177.304 31.14C176.567 31.14 175.904 30.986 175.316 30.678C174.738 30.3607 174.28 29.9267 173.944 29.376C173.618 28.816 173.454 28.1907 173.454 27.5C173.454 26.8 173.618 26.1747 173.944 25.624C174.28 25.0733 174.738 24.644 175.316 24.336C175.904 24.0187 176.567 23.86 177.304 23.86C178.042 23.86 178.7 24.0187 179.278 24.336C179.866 24.644 180.324 25.078 180.65 25.638C180.986 26.1887 181.154 26.8093 181.154 27.5C181.154 28.1907 180.986 28.816 180.65 29.376C180.324 29.9267 179.866 30.3607 179.278 30.678C178.69 30.986 178.032 31.14 177.304 31.14ZM177.304 30.888C177.79 30.888 178.214 30.7573 178.578 30.496C178.942 30.2253 179.222 29.8333 179.418 29.32C179.614 28.8067 179.712 28.2 179.712 27.5C179.712 26.7907 179.614 26.184 179.418 25.68C179.222 25.1667 178.942 24.7747 178.578 24.504C178.214 24.2333 177.79 24.098 177.304 24.098C176.819 24.098 176.39 24.2333 176.016 24.504C175.652 24.7747 175.372 25.1667 175.176 25.68C174.98 26.184 174.882 26.7907 174.882 27.5C174.882 28.2 174.98 28.8067 175.176 29.32C175.372 29.8333 175.652 30.2253 176.016 30.496C176.39 30.7573 176.819 30.888 177.304 30.888ZM181.708 30.72H183.038V24.28H181.708V24H185.558C186.51 24 187.247 24.1587 187.77 24.476C188.302 24.7933 188.568 25.2367 188.568 25.806C188.568 26.2167 188.423 26.562 188.134 26.842C187.854 27.1127 187.438 27.3087 186.888 27.43V27.5C187.522 27.6027 188.012 27.7987 188.358 28.088C188.703 28.3773 188.876 28.746 188.876 29.194C188.876 29.7633 188.605 30.2067 188.064 30.524C187.532 30.8413 186.78 31 185.81 31H181.708V30.72ZM185.768 30.734C186.337 30.734 186.776 30.5987 187.084 30.328C187.392 30.048 187.546 29.6513 187.546 29.138C187.546 28.6527 187.387 28.2793 187.07 28.018C186.762 27.7567 186.314 27.626 185.726 27.626H184.396V30.734H185.768ZM185.474 27.374C186.062 27.374 186.514 27.2433 186.832 26.982C187.149 26.7113 187.308 26.3287 187.308 25.834C187.308 25.33 187.154 24.9427 186.846 24.672C186.538 24.4013 186.099 24.266 185.53 24.266H184.396V27.374H185.474ZM189.289 30.72H190.619V24.28H189.289V24H193.307V24.28H191.977V26.94H193.167C194.128 26.94 194.875 27.122 195.407 27.486C195.948 27.8407 196.219 28.3353 196.219 28.97C196.219 29.6047 195.948 30.104 195.407 30.468C194.875 30.8227 194.128 31 193.167 31H189.289V30.72ZM193.027 30.72C193.606 30.72 194.054 30.566 194.371 30.258C194.698 29.95 194.861 29.5207 194.861 28.97C194.861 28.41 194.698 27.9807 194.371 27.682C194.054 27.374 193.606 27.22 193.027 27.22H191.977V30.72H193.027ZM196.121 30.72H197.591V24.28H196.121V24H198.949V30.72H200.419V31H196.121V30.72ZM199.639 30.72H200.899L203.349 27.64L200.759 24.28H199.695V24H203.671V24.28H202.425L204.455 26.828L206.485 24.28H205.071V24H207.941V24.28H206.835L204.623 27.052L207.409 30.72H208.417V31H204.231V30.72H205.743L203.517 27.864L201.249 30.72H202.831V31H199.639V30.72ZM133.212 44.72H135.06V35.48H133.156C132.96 35.48 132.745 35.5687 132.512 35.746C132.279 35.9233 132.083 36.1427 131.924 36.404C131.765 36.656 131.686 36.8893 131.686 37.104V38.42H131.42V34.22H131.7V35.2H140.03V34.22H140.31V38.42H140.058V37.104C140.058 36.8893 139.979 36.656 139.82 36.404C139.661 36.1427 139.465 35.9233 139.232 35.746C138.999 35.5687 138.784 35.48 138.588 35.48H136.67V44.72H138.518V45H133.212V44.72ZM146.524 44.482C146.263 44.6313 145.945 44.7667 145.572 44.888C145.32 44.972 145.063 45.0327 144.802 45.07C144.541 45.1167 144.279 45.14 144.018 45.14C143.29 45.14 142.637 44.9907 142.058 44.692C141.479 44.384 141.027 43.9547 140.7 43.404C140.383 42.844 140.224 42.2093 140.224 41.5C140.224 40.8 140.383 40.1747 140.7 39.624C141.017 39.064 141.451 38.63 142.002 38.322C142.553 38.014 143.173 37.86 143.864 37.86C144.583 37.86 145.213 38.014 145.754 38.322C146.295 38.6207 146.715 39.0453 147.014 39.596C147.322 40.1467 147.481 40.7767 147.49 41.486C147.49 41.5047 147.49 41.528 147.49 41.556C147.49 41.584 147.49 41.612 147.49 41.64H141.652C141.661 42.312 141.764 42.8953 141.96 43.39C142.165 43.8753 142.436 44.2487 142.772 44.51C143.108 44.7713 143.491 44.902 143.92 44.902C144.284 44.902 144.671 44.7947 145.082 44.58C145.493 44.356 145.838 44.0807 146.118 43.754C146.398 43.4273 146.538 43.1193 146.538 42.83V42.55H146.804V45.476H146.524V44.482ZM146.062 41.36C146.053 40.66 145.955 40.0673 145.768 39.582C145.591 39.0873 145.339 38.7187 145.012 38.476C144.695 38.224 144.312 38.098 143.864 38.098C143.425 38.098 143.043 38.2333 142.716 38.504C142.389 38.7653 142.133 39.1433 141.946 39.638C141.759 40.1327 141.661 40.7067 141.652 41.36H146.062ZM147.309 44.72H148.569L151.019 41.64L148.429 38.28H147.365V38H151.341V38.28H150.095L152.125 40.828L154.155 38.28H152.741V38H155.611V38.28H154.505L152.293 41.052L155.079 44.72H156.087V45H151.901V44.72H153.413L151.187 41.864L148.919 44.72H150.501V45H147.309V44.72ZM155.225 44.72H156.555V38.28H155.225V38H157.913V41.36H161.413V38.28H159.943V38H164.115V38.28H162.785V44.72H164.115V45H160.125V44.72H161.413V41.64H157.913V44.72H159.215V45H155.225V44.72ZM168.527 45.14C167.79 45.14 167.127 44.986 166.539 44.678C165.96 44.3607 165.503 43.9267 165.167 43.376C164.84 42.816 164.677 42.1907 164.677 41.5C164.677 40.8 164.84 40.1747 165.167 39.624C165.503 39.0733 165.96 38.644 166.539 38.336C167.127 38.0187 167.79 37.86 168.527 37.86C169.264 37.86 169.922 38.0187 170.501 38.336C171.089 38.644 171.546 39.078 171.873 39.638C172.209 40.1887 172.377 40.8093 172.377 41.5C172.377 42.1907 172.209 42.816 171.873 43.376C171.546 43.9267 171.089 44.3607 170.501 44.678C169.913 44.986 169.255 45.14 168.527 45.14ZM168.527 44.888C169.012 44.888 169.437 44.7573 169.801 44.496C170.165 44.2253 170.445 43.8333 170.641 43.32C170.837 42.8067 170.935 42.2 170.935 41.5C170.935 40.7907 170.837 40.184 170.641 39.68C170.445 39.1667 170.165 38.7747 169.801 38.504C169.437 38.2333 169.012 38.098 168.527 38.098C168.042 38.098 167.612 38.2333 167.239 38.504C166.875 38.7747 166.595 39.1667 166.399 39.68C166.203 40.184 166.105 40.7907 166.105 41.5C166.105 42.2 166.203 42.8067 166.399 43.32C166.595 43.8333 166.875 44.2253 167.239 44.496C167.612 44.7573 168.042 44.888 168.527 44.888ZM173.336 45.126C173.206 45.126 173.075 45.1027 172.944 45.056C172.814 45.0187 172.702 44.9673 172.608 44.902V43.488H172.678C172.8 43.6373 172.935 43.754 173.084 43.838C173.243 43.9127 173.416 43.95 173.602 43.95C174.032 43.95 174.372 43.67 174.624 43.11C174.774 42.7647 174.881 42.34 174.946 41.836C175.021 41.332 175.082 40.744 175.128 40.072C175.128 40.0347 175.128 40.002 175.128 39.974C175.138 39.946 175.142 39.9133 175.142 39.876C175.142 39.7453 175.138 39.6147 175.128 39.484C175.128 39.3533 175.124 39.2227 175.114 39.092C175.105 38.9613 175.096 38.8307 175.086 38.7C175.077 38.56 175.063 38.42 175.044 38.28H173.938V38H180.896V38.28H179.566V44.72H180.896V45H176.584V44.72H178.194V38.28H175.716L175.618 39.05C175.618 39.0593 175.618 39.0687 175.618 39.078C175.618 39.0873 175.618 39.0967 175.618 39.106C175.488 40.1607 175.371 41.0007 175.268 41.626C175.166 42.242 175.035 42.774 174.876 43.222C174.68 43.9033 174.461 44.3933 174.218 44.692C173.985 44.9813 173.691 45.126 173.336 45.126ZM185.303 45.14C184.566 45.14 183.903 44.986 183.315 44.678C182.736 44.3607 182.279 43.9267 181.943 43.376C181.616 42.816 181.453 42.1907 181.453 41.5C181.453 40.8 181.616 40.1747 181.943 39.624C182.279 39.0733 182.736 38.644 183.315 38.336C183.903 38.0187 184.566 37.86 185.303 37.86C186.04 37.86 186.698 38.0187 187.277 38.336C187.865 38.644 188.322 39.078 188.649 39.638C188.985 40.1887 189.153 40.8093 189.153 41.5C189.153 42.1907 188.985 42.816 188.649 43.376C188.322 43.9267 187.865 44.3607 187.277 44.678C186.689 44.986 186.031 45.14 185.303 45.14ZM185.303 44.888C185.788 44.888 186.213 44.7573 186.577 44.496C186.941 44.2253 187.221 43.8333 187.417 43.32C187.613 42.8067 187.711 42.2 187.711 41.5C187.711 40.7907 187.613 40.184 187.417 39.68C187.221 39.1667 186.941 38.7747 186.577 38.504C186.213 38.2333 185.788 38.098 185.303 38.098C184.818 38.098 184.388 38.2333 184.015 38.504C183.651 38.7747 183.371 39.1667 183.175 39.68C182.979 40.184 182.881 40.7907 182.881 41.5C182.881 42.2 182.979 42.8067 183.175 43.32C183.371 43.8333 183.651 44.2253 184.015 44.496C184.388 44.7573 184.818 44.888 185.303 44.888ZM189.706 44.72H191.036V38.28H189.706V38H195.404V37.16H195.684V40.66H195.432V39.54C195.432 39.3813 195.358 39.204 195.208 39.008C195.059 38.8027 194.877 38.63 194.662 38.49C194.448 38.35 194.256 38.28 194.088 38.28H192.394V44.72H194.074V45H189.706V44.72ZM197.221 38.28H196.003V38H199.993V38.28H198.593V43.18L202.541 38H204.781V38.28H203.451V44.72H204.781V45H200.623V44.72H202.079V39.092L197.403 45.308H197.221V38.28ZM206.073 38.28H204.855V38H208.845V38.28H207.445V43.18L211.393 38H213.633V38.28H212.303V44.72H213.633V45H209.475V44.72H210.931V39.092L206.255 45.308H206.073V38.28ZM209.237 37.104C208.743 37.104 208.304 36.9967 207.921 36.782C207.548 36.5673 207.259 36.264 207.053 35.872C206.848 35.48 206.745 35.032 206.745 34.528V34.388H206.969V34.514C206.969 35.0087 207.161 35.382 207.543 35.634C207.926 35.886 208.491 36.012 209.237 36.012C209.993 36.012 210.563 35.886 210.945 35.634C211.328 35.382 211.519 35.0087 211.519 34.514V34.388H211.743V34.528C211.743 35.032 211.636 35.48 211.421 35.872C211.216 36.264 210.922 36.5673 210.539 36.782C210.166 36.9967 209.732 37.104 209.237 37.104Z" fill="#211F20"/>
</svg>
